<?xml version="1.0" encoding="UTF-8"?>
<svg version="1.1" xmlns="http://www.w3.org/2000/svg" width="64" height="64">
<path d="M0 0 C0.90136185 -0.00960754 1.80272369 -0.01921509 2.73139954 -0.02911377 C3.7032872 -0.03336365 4.67517487 -0.03761353 5.67651367 -0.04199219 C7.18032845 -0.0505423 7.18032845 -0.0505423 8.71452332 -0.05926514 C10.83701523 -0.06871379 12.9595218 -0.07524858 15.08203125 -0.07910156 C18.32146969 -0.0887983 21.56027126 -0.11981967 24.79956055 -0.15136719 C26.86270783 -0.15789832 28.92585964 -0.16314836 30.98901367 -0.16699219 C31.95482864 -0.17933899 32.92064362 -0.19168579 33.91572571 -0.20440674 C39.16428882 -0.187113 43.10103352 0.02092185 47.53198242 3.16113281 C51.59352977 7.6176199 50.98258731 13.02099608 50.96557617 18.71972656 C50.97081802 19.74163589 50.97605988 20.76354523 50.98146057 21.81642151 C50.98787375 23.97404066 50.98655291 26.1316948 50.97802734 28.28930664 C50.9695207 31.58380641 50.99828444 34.87656998 51.0300293 38.17089844 C51.03164157 40.27050729 51.03106328 42.37011921 51.02807617 44.46972656 C51.03931015 45.4511412 51.05054413 46.43255585 51.06211853 47.44371033 C51.00466491 53.10509652 50.68374992 56.92479456 46.53198242 61.16113281 C41.16609649 64.29820337 35.61636124 64.60669516 29.53588867 64.55957031 C28.70290756 64.56244049 27.86992645 64.56531067 27.01170349 64.56826782 C25.26121333 64.57029671 23.51069987 64.56484969 21.76025391 64.55224609 C19.10486286 64.53619556 16.4509983 64.552124 13.7956543 64.57128906 C12.08406245 64.56930602 10.37247153 64.5654611 8.66088867 64.55957031 C7.48859459 64.56867935 7.48859459 64.56867935 6.2926178 64.57797241 C-0.58978624 64.49169025 -6.97303515 63.654909 -11.99291992 58.63745117 C-14.01790037 53.86524054 -14.07918426 49.67793283 -14.06958008 44.54003906 C-14.07815033 43.52191635 -14.08672058 42.50379364 -14.09555054 41.45481873 C-14.10700676 39.30739306 -14.10805997 37.1598898 -14.09936523 35.01245117 C-14.09304355 31.73709046 -14.13999151 28.46534416 -14.19067383 25.19042969 C-14.19522031 23.09863735 -14.19662657 21.00683534 -14.19458008 18.91503906 C-14.21299957 17.94192276 -14.23141907 16.96880646 -14.25039673 15.96620178 C-14.16994516 10.01782626 -13.18438229 6.75329785 -9.04794312 2.41197205 C-6.19964479 0.15695229 -3.48760433 0.03005123 0 0 Z " fill="#2A84F9" transform="translate(13.468017578125,-0.1611328125)"/>
<path d="M0 0 C1.17732706 3.67914707 1 7.16659144 1 11 C1.33 11.66 1.66 12.32 2 13 C3.65 11.35 5.3 9.7 7 8 C7.01417969 8.66386719 7.02835938 9.32773437 7.04296875 10.01171875 C7.36090797 16.00119647 7.36090797 16.00119647 10.4375 21.0625 C14.2206938 23.9229636 16.23842149 24.45784409 21 24 C24.00685874 22.38092222 26.2581079 20.94422632 28.375 18.25 C29.33315962 14.80062538 29.11908512 11.57255374 29 8 C32.875 11.75 32.875 11.75 34 14 C35.04976964 10.85069107 35.10131595 8.61185544 35.0625 5.3125 C35.05347656 4.31863281 35.04445312 3.32476562 35.03515625 2.30078125 C35.02355469 1.54152344 35.01195312 0.78226563 35 0 C37.40759871 1.73046157 38.83393894 3.07879814 39.37109375 6.05859375 C39.51534006 11.09024455 38.91460585 14.76912053 36 19 C33.77584456 21.15001693 31.44708191 23.10937781 29 25 C32.96 24.505 32.96 24.505 37 24 C37 26.25 37 26.25 36 29 C34.22265625 29.9765625 34.22265625 29.9765625 32.0625 30.875 C29.87128693 31.789182 29.87128693 31.789182 28 33 C26.63501074 36.27581392 26.63501074 36.27581392 26 40 C22.90851735 47.09148265 22.90851735 47.09148265 21 49 C18.0625 49.1875 18.0625 49.1875 15 49 C12.96778307 46.96778307 12.44054795 45.88762359 11.5 43.25 C11.23574219 42.5384375 10.97148437 41.826875 10.69921875 41.09375 C10 39 10 39 9.3125 35.75 C7.55239274 32.06215622 5.4140006 31.57028597 1.77734375 30.01171875 C0 29 0 29 -1 26.25 C-1 25.5075 -1 24.765 -1 24 C5.75 24.875 5.75 24.875 8 26 C8 25.34 8 24.68 8 24 C7.443125 23.773125 6.88625 23.54625 6.3125 23.3125 C2.01668775 20.87433629 -1.12238714 17.56352542 -3 13 C-3.57291448 8.77382564 -3.67904173 5.16002963 -1.5 1.4375 C-0.7575 0.7259375 -0.7575 0.7259375 0 0 Z " fill="#F2F7FC" transform="translate(14,9)"/>
<path d="M0 0 C0.33 0 0.66 0 1 0 C1 2.64 1 5.28 1 8 C0.34 7.01 -0.32 6.02 -1 5 C-1.66 5.99 -2.32 6.98 -3 8 C-2.25 2.25 -2.25 2.25 0 0 Z " fill="#C0DAF9" transform="translate(20,17)"/>
</svg>
